HIERARCHY
ROOT Hips
{
	OFFSET 0.000000 0.000000 0.000000
	CHANNELS 6 Xposition Yposition Zposition Xrotation Yrotation Zrotation
	JOINT LeftUpLeg_virtual
	{
		OFFSET 0.000000 0.000000 0.000000
		CHANNELS 3 Xrotation Yrotation Zrotation
		JOINT LeftUpLeg
		{
			OFFSET 15.427100 -6.655098 0.678600
			CHANNELS 3 Xrotation Yrotation Zrotation
			JOINT LeftLeg
			{
				OFFSET 4.081073 -39.591068 13.024000
				CHANNELS 3 Xrotation Yrotation Zrotation
				JOINT LeftFoot
				{
					OFFSET -4.081074 -37.707932 -15.979700
					CHANNELS 3 Xrotation Yrotation Zrotation
					JOINT LeftToeBase
					{
						OFFSET 5.346399 -15.068900 20.645000
						CHANNELS 3 Xrotation Yrotation Zrotation
						JOINT LeftToe_End
						{
							OFFSET 2.754700 0.931300 11.300900
							CHANNELS 3 Xrotation Yrotation Zrotation
							End Site
							{
								OFFSET 0 0 0
							}
						}
					}
				}
			}
		}
	}
	JOINT RightUpLeg_virtual
	{
		OFFSET 0.000000 0.000000 0.000000
		CHANNELS 3 Xrotation Yrotation Zrotation
		JOINT RightUpLeg
		{
			OFFSET -15.569500 -6.655098 0.678600
			CHANNELS 3 Xrotation Yrotation Zrotation
			JOINT RightLeg
			{
				OFFSET -4.081825 -39.591045 13.023800
				CHANNELS 3 Xrotation Yrotation Zrotation
				JOINT RightFoot
				{
					OFFSET 4.081824 -37.707954 -15.979600
					CHANNELS 3 Xrotation Yrotation Zrotation
					JOINT RightToeBase
					{
						OFFSET -5.346400 -15.068900 20.645000
						CHANNELS 3 Xrotation Yrotation Zrotation
						JOINT RightToe_End
						{
							OFFSET -2.754700 0.931300 11.300900
							CHANNELS 3 Xrotation Yrotation Zrotation
							End Site
							{
								OFFSET 0 0 0
							}
						}
					}
				}
			}
		}
	}
	JOINT Spine_virtual
	{
		OFFSET 0.000000 0.000000 0.000000
		CHANNELS 3 Xrotation Yrotation Zrotation
		JOINT Spine
		{
			OFFSET -0.279200 12.230698 -2.892100
			CHANNELS 3 Xrotation Yrotation Zrotation
			JOINT Spine1
			{
				OFFSET -0.232667 10.192268 -1.242267
				CHANNELS 3 Xrotation Yrotation Zrotation
				JOINT Spine1_split
				{
					OFFSET -0.232667 10.192268 -1.242267
					CHANNELS 3 Xrotation Yrotation Zrotation
					JOINT Spine2
					{
						OFFSET -0.232667 10.192268 -1.242267
						CHANNELS 3 Xrotation Yrotation Zrotation
						JOINT Neck_virtual
						{
							OFFSET 0.000000 0.000000 0.000000
							CHANNELS 3 Xrotation Yrotation Zrotation
							JOINT Neck
							{
								OFFSET -0.418800 17.814194 8.416900
								CHANNELS 3 Xrotation Yrotation Zrotation
								JOINT Head
								{
									OFFSET 0.000000 7.031097 3.806800
									CHANNELS 3 Xrotation Yrotation Zrotation
									JOINT HeadTop_End
									{
										OFFSET 0.000000 24.646606 12.978600
										CHANNELS 3 Xrotation Yrotation Zrotation
										End Site
										{
											OFFSET 0 0 0
										}
									}
								}
							}
						}
						JOINT LeftShoulder_virtual
						{
							OFFSET 0.000000 0.000000 0.000000
							CHANNELS 3 Xrotation Yrotation Zrotation
							JOINT LeftShoulder
							{
								OFFSET 8.476499 7.247704 -3.868750
								CHANNELS 3 Xrotation Yrotation Zrotation
								JOINT LeftShoulder_split
								{
									OFFSET 8.476499 7.247704 -3.868750
									CHANNELS 3 Xrotation Yrotation Zrotation
									JOINT LeftArm
									{
										OFFSET 9.308998 -2.777710 0.208600
										CHANNELS 3 Xrotation Yrotation Zrotation
										JOINT LeftForeArm
										{
											OFFSET 29.972298 0.000000 0.000000
											CHANNELS 3 Xrotation Yrotation Zrotation
											JOINT LeftHand
											{
												OFFSET 26.026505 0.000000 0.000000
												CHANNELS 3 Xrotation Yrotation Zrotation
												End Site
												{
													OFFSET 0 0 0
												}
											}
										}
									}
								}
							}
						}
						JOINT RightShoulder_virtual
						{
							OFFSET 0.000000 0.000000 0.000000
							CHANNELS 3 Xrotation Yrotation Zrotation
							JOINT RightShoulder
							{
								OFFSET -7.570500 7.247704 -3.868750
								CHANNELS 3 Xrotation Yrotation Zrotation
								JOINT RightShoulder_split
								{
									OFFSET -7.570500 7.247704 -3.868750
									CHANNELS 3 Xrotation Yrotation Zrotation
									JOINT RightArm
									{
										OFFSET -9.308998 -2.777710 0.208500
										CHANNELS 3 Xrotation Yrotation Zrotation
										JOINT RightForeArm
										{
											OFFSET -29.972300 0.000000 0.000000
											CHANNELS 3 Xrotation Yrotation Zrotation
											JOINT RightHand
											{
												OFFSET -26.026505 0.000000 0.000000
												CHANNELS 3 Xrotation Yrotation Zrotation
												End Site
												{
													OFFSET 0 0 0
												}
											}
										}
									}
								}
							}
						}
					}
				}
			}
		}
	}
}
MOTION
Frames: 5
Frame Time: 0.03333333
-0.623358 75.561546 -1.060711 0.000000 0.000000 0.000000 -4.122594 -50.000946 0.584345 -29.881063 9.588170 21.732940 56.003395 -5.958990 5.664754 -24.796694 -6.067546 -14.961415 -9.120335 -0.315822 -0.280583 0.000000 0.000000 0.000000 -5.551732 -46.174988 1.288060 -17.555104 -10.885419 -33.926356 50.654985 -7.506552 -13.949544 -26.637842 -8.329673 23.687921 -0.405722 1.132826 -0.073758 0.000000 0.000000 0.000000 -3.994014 -47.658079 1.001326 10.111804 8.075308 -1.518884 2.190758 1.688162 -1.240125 0.117011 -1.309500 0.783437 0.000000 0.000000 0.000000 2.146991 1.385231 -0.726046 -0.756600 13.621830 4.039999 7.606961 21.637419 -5.889260 0.000000 0.000000 0.000000 3.504877 1.011259 -0.942389 1.546041 3.901274 -6.293716 -3.177021 -1.299437 -1.540780 -51.012231 3.028334 -50.176144 179.785988 -71.770801 -178.249591 0.000000 0.000000 0.000000 3.546179 1.500302 -0.538635 3.761456 11.285779 -6.233890 -1.303336 -2.427807 -0.280227 -48.592090 29.273839 86.284605 178.475411 65.138435 -178.731857 0.000000 0.000000 0.000000 
-0.436434 75.131531 -1.159767 0.000000 0.000000 0.000000 -4.418275 -50.258666 0.452554 -29.956957 9.160137 21.276966 55.937152 -4.544964 5.279683 -25.250494 -5.660386 -13.179591 -8.802239 -0.200201 -1.166206 0.000000 0.000000 0.000000 -5.433495 -45.699416 1.276227 -17.852340 -10.956451 -34.115685 51.323954 -7.202652 -13.763134 -27.530223 -8.014405 23.760022 0.493237 1.172042 -0.175066 0.000000 0.000000 0.000000 -4.411807 -47.348155 0.738111 10.468131 8.053770 -1.522390 2.343256 1.559058 -1.112618 0.525638 -1.605263 1.007651 0.000000 0.000000 0.000000 2.109556 1.249341 -0.587568 -0.580236 13.548896 3.821989 8.038207 21.515782 -5.758778 0.000000 0.000000 0.000000 3.444478 0.952585 -0.904568 1.561797 4.009449 -6.651228 -3.024307 -1.151604 -1.277746 -50.973131 3.158465 -50.305549 179.967316 -72.058516 -178.162179 0.000000 0.000000 0.000000 3.606217 1.422909 -0.511763 3.885745 11.714115 -6.206414 -1.670335 -2.987640 -0.327347 -50.314199 28.520922 86.523962 178.815363 65.229755 -179.247824 0.000000 0.000000 0.000000 
-0.306119 74.409760 -1.142681 0.000000 0.000000 0.000000 -5.061490 -50.777990 0.018496 -30.908030 8.224068 21.166111 57.086444 -3.060701 4.952553 -23.665330 -5.409573 -12.499970 -7.896134 -0.172495 -1.664315 0.000000 0.000000 0.000000 -5.697561 -45.522968 0.836357 -18.411731 -11.260964 -34.071521 52.524414 -7.019260 -13.509940 -28.290589 -7.611478 23.965829 0.551824 1.207533 -0.216512 0.000000 0.000000 0.000000 -5.252059 -47.358097 0.107296 10.815603 8.026573 -1.336224 2.428015 1.381840 -0.925482 0.870905 -1.501251 1.104549 0.000000 0.000000 0.000000 2.055082 1.059812 -0.466198 -0.619773 13.405834 3.550226 8.522685 21.320432 -5.561527 0.000000 0.000000 0.000000 3.393002 0.817737 -0.809967 1.587047 4.028659 -7.215429 -2.689950 -1.107436 -0.981817 -51.133883 3.581775 -50.602495 -179.709954 -72.943319 -177.938572 0.000000 0.000000 0.000000 3.621321 1.257497 -0.433402 3.929345 11.967176 -6.144928 -2.138867 -3.158333 -0.264178 -51.831355 26.950714 85.964672 179.239477 65.868111 -179.980580 0.000000 0.000000 0.000000 
-0.107788 73.582062 -1.116638 0.000000 0.000000 0.000000 -5.968025 -51.318715 -0.587431 -32.197952 6.659691 21.120460 58.735611 -2.155512 4.844241 -20.276424 -5.912961 -13.385678 -9.263932 -0.375560 -0.551469 0.000000 0.000000 0.000000 -6.409487 -45.831416 0.174337 -19.146858 -11.695370 -33.998978 53.908375 -6.883532 -13.313433 -29.053678 -7.107330 24.059529 0.014734 1.232397 -0.125646 0.000000 0.000000 0.000000 -6.333158 -47.849112 -0.694193 11.065345 8.036914 -0.994404 2.400548 1.240858 -0.738290 0.953481 -0.995296 0.941485 0.000000 0.000000 0.000000 2.011185 0.886660 -0.398729 -0.875451 13.204816 3.272143 8.900512 21.049035 -5.353066 0.000000 0.000000 0.000000 3.326761 0.681654 -0.643489 1.607257 4.010917 -7.813581 -2.348035 -1.301280 -0.672777 -51.385692 4.038102 -50.968787 -179.371723 -73.710179 -177.702015 0.000000 0.000000 0.000000 3.551526 1.060230 -0.329799 3.889236 12.056598 -6.154541 -2.734720 -2.830215 0.106041 -52.413721 25.122547 84.823464 179.530648 66.730709 179.379318 0.000000 0.000000 0.000000 
0.250139 72.795433 -1.002205 0.000000 0.000000 0.000000 -7.133896 -51.814467 -1.245687 -33.050988 4.621639 20.748001 60.282669 -2.136871 5.041112 -16.454704 -7.606608 -15.528242 -13.245229 -0.943670 2.071007 0.000000 0.000000 0.000000 -7.561040 -46.569251 -0.515299 -20.016231 -12.035268 -34.166502 55.342069 -6.676883 -13.199101 -29.870190 -6.374943 23.826080 -0.186848 1.234421 0.134140 0.000000 0.000000 0.000000 -7.607317 -48.753658 -1.505035 11.225439 8.088847 -0.603108 2.303862 1.178152 -0.592418 0.692099 -0.411423 0.730891 0.000000 0.000000 0.000000 2.014099 0.797903 -0.379808 -1.262248 13.001356 3.032569 9.085320 20.787121 -5.212341 0.000000 0.000000 0.000000 3.256837 0.617688 -0.412771 1.632695 4.022893 -8.371541 -1.865639 -1.434480 -0.480244 -51.636893 4.289747 -51.318285 -179.245911 -73.953627 -177.702043 0.000000 0.000000 0.000000 3.417787 0.882120 -0.250650 3.825791 12.074126 -6.346095 -3.318086 -1.888865 0.523318 -51.927046 23.273639 83.315173 179.580549 67.440448 179.060362 0.000000 0.000000 0.000000 
